<svg width="21" height="21" viewBox="0 0 21 21" fill="none" xmlns="http://www.w3.org/2000/svg">
<path d="M13.125 13.125L14.0437 14.0437L12.3375 15.75H18.375V17.0625H12.3375L14.0437 18.7688L13.125 19.6875L9.84375 16.4062L13.125 13.125ZM9.1875 9.84375H14.4375V11.1562H9.1875V9.84375ZM9.1875 5.25H14.4375V6.5625H9.1875V5.25Z" fill="black"/>
<path d="M8.53125 18.375H5.25V15.75H6.5625V14.4375H5.25L5.25 11.1562H6.5625V9.84375H5.25V6.5625H6.5625V5.25H5.25V2.625L17.0625 2.625V13.125H18.375V2.625C18.375 1.90312 17.7844 1.3125 17.0625 1.3125L5.25 1.3125C4.52812 1.3125 3.9375 1.90312 3.9375 2.625V5.25H2.625L2.625 6.5625H3.9375L3.9375 9.84375H2.625V11.1562H3.9375L3.9375 14.4375H2.625V15.75H3.9375V18.375C3.9375 19.0969 4.52812 19.6875 5.25 19.6875H8.53125V18.375Z" fill="black"/>
</svg>
