<svg width="24" height="23" viewBox="0 0 24 23" fill="none" xmlns="http://www.w3.org/2000/svg">
<path d="M22.2733 7.86802L21.9973 5.23267C21.5978 2.35948 20.2944 1.18927 17.5068 1.18927L15.2615 1.18927H13.8535L10.9612 1.18927H9.55318L7.26985 1.18927C4.47277 1.18927 3.17888 2.35948 2.76978 5.26121L2.5129 7.87753C2.41777 8.89552 2.69367 9.88496 3.29304 10.6556C4.0161 11.5975 5.12922 12.1302 6.36603 12.1302C7.56478 12.1302 8.71596 11.5309 9.43902 10.57C10.086 11.5309 11.1896 12.1302 12.4169 12.1302C13.6442 12.1302 14.7192 11.5594 15.3757 10.608C16.1083 11.5499 17.2404 12.1302 18.4201 12.1302C19.6855 12.1302 20.8271 11.5689 21.5407 10.5795C22.1115 9.81837 22.3684 8.85746 22.2733 7.86802Z" fill="black"/>
<path d="M11.7981 15.8502C10.5898 15.9739 9.67645 17.0014 9.67645 18.2192V20.826C9.67645 21.0829 9.88576 21.2922 10.1426 21.2922H14.6808C14.9376 21.2922 15.1469 21.0829 15.1469 20.826V18.5522C15.1565 16.5638 13.9862 15.6219 11.7981 15.8502Z" fill="black"/>
<path d="M21.3309 13.7V16.5352C21.3309 19.161 19.1998 21.2921 16.574 21.2921C16.3171 21.2921 16.1078 21.0828 16.1078 20.8259V18.5521C16.1078 17.3343 15.7368 16.383 15.0137 15.736C14.3763 15.1557 13.5105 14.8702 12.4354 14.8702C12.1976 14.8702 11.9597 14.8798 11.7029 14.9083C10.0094 15.0795 8.72502 16.5066 8.72502 18.2191V20.8259C8.72502 21.0828 8.51571 21.2921 8.25884 21.2921C5.633 21.2921 3.50189 19.161 3.50189 16.5352L3.50189 13.7191C3.50189 13.0531 4.15835 12.6059 4.77675 12.8248C5.03363 12.9104 5.2905 12.977 5.55689 13.015C5.67106 13.0341 5.79474 13.0531 5.90891 13.0531C6.06113 13.0721 6.21335 13.0816 6.36557 13.0816C7.46918 13.0816 8.55377 12.6725 9.41002 11.9685C10.2282 12.6725 11.2938 13.0816 12.4164 13.0816C13.5486 13.0816 14.5951 12.6916 15.4133 11.9875C16.2695 12.682 17.3351 13.0816 18.4197 13.0816C18.5909 13.0816 18.7622 13.0721 18.9239 13.0531C19.0381 13.0436 19.1427 13.0341 19.2474 13.015C19.5423 12.977 19.8087 12.8914 20.0751 12.8057C20.6935 12.5964 21.3309 13.0531 21.3309 13.7Z" fill="black"/>
</svg>
